{
  "asset": {
    "generator": "Khronos glTF Blender I/O v4.5.47",
    "version": "2.0"
  },
  "scene": 0,
  "scenes": [
    {
      "name": "Scene",
      "nodes": [
        0
      ]
    }
  ],
  "nodes": [
    {
      "mesh": 0,
      "name": "sphere_gltf"
    }
  ],
  "materials": [
    {
      "doubleSided": true,
      "name": "old_stone_wall",
      "normalTexture": {
        "index": 0
      },
      "pbrMetallicRoughness": {
        "baseColorTexture": {
          "index": 1
        },
        "metallicFactor": 0,
        "metallicRoughnessTexture": {
          "index": 2
        }
      }
    }
  ],
  "meshes": [
    {
      "name": "Sphere.001",
      "primitives": [
        {
          "attributes": {
            "POSITION": 0,
            "NORMAL": 1,
            "TEXCOORD_0": 2
          },
          "indices": 3,
          "material": 0
        }
      ]
    }
  ],
  "textures": [
    {
      "sampler": 0,
      "source": 0
    },
    {
      "sampler": 0,
      "source": 1
    },
    {
      "sampler": 0,
      "source": 2
    }
  ],
  "images": [
    {
      "mimeType": "image/jpeg",
      "name": "old_stone_wall_nor_gl",
      "uri": "textures/old_stone_wall_nor_gl_2k.jpg"
    },
    {
      "mimeType": "image/jpeg",
      "name": "old_stone_wall_diff",
      "uri": "textures/old_stone_wall_diff_2k.jpg"
    },
    {
      "mimeType": "image/jpeg",
      "name": "old_stone_wall_rough",
      "uri": "textures/old_stone_wall_arm_2k.jpg"
    }
  ],
  "accessors": [
    {
      "bufferView": 0,
      "componentType": 5126,
      "count": 53930,
      "max": [
        1.0060275793075562,
        1.0066759586334229,
        1.0051076412200928
      ],
      "min": [
        -1.0060276985168457,
        -1.0071219205856323,
        -1.005104422569275
      ],
      "type": "VEC3"
    },
    {
      "bufferView": 1,
      "componentType": 5126,
      "count": 53930,
      "type": "VEC3"
    },
    {
      "bufferView": 2,
      "componentType": 5126,
      "count": 53930,
      "type": "VEC2"
    },
    {
      "bufferView": 3,
      "componentType": 5123,
      "count": 322170,
      "type": "SCALAR"
    }
  ],
  "bufferViews": [
    {
      "buffer": 0,
      "byteLength": 647160,
      "byteOffset": 0,
      "target": 34962
    },
    {
      "buffer": 0,
      "byteLength": 647160,
      "byteOffset": 647160,
      "target": 34962
    },
    {
      "buffer": 0,
      "byteLength": 431440,
      "byteOffset": 1294320,
      "target": 34962
    },
    {
      "buffer": 0,
      "byteLength": 644340,
      "byteOffset": 1725760,
      "target": 34963
    }
  ],
  "samplers": [
    {
      "magFilter": 9729,
      "minFilter": 9987
    }
  ],
  "buffers": [
    {
      "byteLength": 2370100,
      "uri": "old_stone_wall.bin"
    }
  ]
}